{
  "accessors": [
    {
      "bufferView": 2,
      "componentType": 5126,
      "count": 21577,
      "max": [
        0.29950201511383057,
        1.9998160600662231,
        0.5856480598449707
      ],
      "min": [
        -0.29950201511383057,
        1.6495236195623875e-05,
        -0.5856195092201233
      ],
      "type": "VEC3"
    },
    {
      "bufferView": 2,
      "byteOffset": 258924,
      "componentType": 5126,
      "count": 21577,
      "max": [
        1.0,
        1.0,
        1.0
      ],
      "min": [
        -1.0,
        -1.0,
        -1.0
      ],
      "type": "VEC3"
    },
    {
      "bufferView": 3,
      "componentType": 5126,
      "count": 21577,
      "max": [
        1.0,
        1.0,
        1.0,
        1.0
      ],
      "min": [
        -1.0,
        -1.0,
        -1.0,
        -1.0
      ],
      "type": "VEC4"
    },
    {
      "bufferView": 1,
      "componentType": 5126,
      "count": 21577,
      "max": [
        0.7364891767501831,
        0.9085014462471008
      ],
      "min": [
        0.018946340307593346,
        0.0005078911781311035
      ],
      "type": "VEC2"
    },
    {
      "bufferView": 1,
      "byteOffset": 172616,
      "componentType": 5126,
      "count": 21577,
      "max": [
        0.7364891767501831,
        0.9085014462471008
      ],
      "min": [
        0.018946340307593346,
        0.0005078911781311035
      ],
      "type": "VEC2"
    },
    {
      "bufferView": 1,
      "byteOffset": 345232,
      "componentType": 5126,
      "count": 21577,
      "max": [
        0.7364891767501831,
        0.9085014462471008
      ],
      "min": [
        0.018946340307593346,
        0.0005078911781311035
      ],
      "type": "VEC2"
    },
    {
      "bufferView": 1,
      "byteOffset": 517848,
      "componentType": 5126,
      "count": 21577,
      "max": [
        0.7364891767501831,
        0.9085014462471008
      ],
      "min": [
        0.018946340307593346,
        0.0005078911781311035
      ],
      "type": "VEC2"
    },
    {
      "bufferView": 0,
      "componentType": 5125,
      "count": 48297,
      "type": "SCALAR"
    },
    {
      "bufferView": 2,
      "byteOffset": 517848,
      "componentType": 5126,
      "count": 2336,
      "max": [
        0.2994912266731262,
        1.9999383687973022,
        0.5664439797401428
      ],
      "min": [
        -0.29949116706848145,
        0.05716438218951225,
        -0.5856481194496155
      ],
      "type": "VEC3"
    },
    {
      "bufferView": 2,
      "byteOffset": 545880,
      "componentType": 5126,
      "count": 2336,
      "max": [
        1.0,
        1.0,
        1.0
      ],
      "min": [
        -1.0,
        -1.0,
        -1.0
      ],
      "type": "VEC3"
    },
    {
      "bufferView": 3,
      "byteOffset": 345232,
      "componentType": 5126,
      "count": 2336,
      "max": [
        1.0,
        1.0,
        1.0,
        1.0
      ],
      "min": [
        -1.0,
        -0.0011367585975676775,
        -1.0,
        -1.0
      ],
      "type": "VEC4"
    },
    {
      "bufferView": 1,
      "byteOffset": 690464,
      "componentType": 5126,
      "count": 2336,
      "max": [
        0.9948052167892456,
        0.994995653629303
      ],
      "min": [
        0.0008865669369697571,
        0.0013656020164489746
      ],
      "type": "VEC2"
    },
    {
      "bufferView": 1,
      "byteOffset": 709152,
      "componentType": 5126,
      "count": 2336,
      "max": [
        0.9948052167892456,
        0.994995653629303
      ],
      "min": [
        0.0008865669369697571,
        0.0013656020164489746
      ],
      "type": "VEC2"
    },
    {
      "bufferView": 1,
      "byteOffset": 727840,
      "componentType": 5126,
      "count": 2336,
      "max": [
        0.9948052167892456,
        0.994995653629303
      ],
      "min": [
        0.0008865669369697571,
        0.0013656020164489746
      ],
      "type": "VEC2"
    },
    {
      "bufferView": 1,
      "byteOffset": 746528,
      "componentType": 5126,
      "count": 2336,
      "max": [
        0.9948052167892456,
        0.994995653629303
      ],
      "min": [
        0.0008865669369697571,
        0.0013656020164489746
      ],
      "type": "VEC2"
    },
    {
      "bufferView": 0,
      "byteOffset": 193188,
      "componentType": 5125,
      "count": 3498,
      "type": "SCALAR"
    },
    {
      "bufferView": 2,
      "byteOffset": 573912,
      "componentType": 5126,
      "count": 180,
      "max": [
        0.2904265522956848,
        1.9982670545578003,
        0.5457475781440735
      ],
      "min": [
        -0.2900460958480835,
        2.2118911147117615e-09,
        -0.5687610507011414
      ],
      "type": "VEC3"
    },
    {
      "bufferView": 2,
      "byteOffset": 576072,
      "componentType": 5126,
      "count": 180,
      "max": [
        5.775522367912345e-06,
        1.0,
        1.0
      ],
      "min": [
        -7.862350685172714e-06,
        -1.0,
        -1.0
      ],
      "type": "VEC3"
    },
    {
      "bufferView": 3,
      "byteOffset": 382608,
      "componentType": 5126,
      "count": 180,
      "max": [
        1.0,
        7.862350685172714e-06,
        1.1920940778509248e-05,
        1.0
      ],
      "min": [
        -1.0,
        -1.3208473319537006e-05,
        -3.575421214918606e-05,
        -1.0
      ],
      "type": "VEC4"
    },
    {
      "bufferView": 1,
      "byteOffset": 765216,
      "componentType": 5126,
      "count": 180,
      "max": [
        0.6568765640258789,
        0.9970024228096008
      ],
      "min": [
        0.0834168940782547,
        0.8352085947990417
      ],
      "type": "VEC2"
    },
    {
      "bufferView": 1,
      "byteOffset": 766656,
      "componentType": 5126,
      "count": 180,
      "max": [
        0.6568765640258789,
        0.9970024228096008
      ],
      "min": [
        0.0834168940782547,
        0.8352085947990417
      ],
      "type": "VEC2"
    },
    {
      "bufferView": 1,
      "byteOffset": 768096,
      "componentType": 5126,
      "count": 180,
      "max": [
        0.6568765640258789,
        0.9970024228096008
      ],
      "min": [
        0.0834168940782547,
        0.8352085947990417
      ],
      "type": "VEC2"
    },
    {
      "bufferView": 1,
      "byteOffset": 769536,
      "componentType": 5126,
      "count": 180,
      "max": [
        0.6568765640258789,
        0.9970024228096008
      ],
      "min": [
        0.0834168940782547,
        0.8352085947990417
      ],
      "type": "VEC2"
    },
    {
      "bufferView": 0,
      "byteOffset": 207180,
      "componentType": 5125,
      "count": 270,
      "type": "SCALAR"
    },
    {
      "bufferView": 2,
      "byteOffset": 578232,
      "componentType": 5126,
      "count": 602,
      "max": [
        0.2525709867477417,
        1.9875346422195435,
        0.5733962059020996
      ],
      "min": [
        -0.2517976760864258,
        0.09066713601350784,
        -0.5722578763961792
      ],
      "type": "VEC3"
    },
    {
      "bufferView": 2,
      "byteOffset": 585456,
      "componentType": 5126,
      "count": 602,
      "max": [
        0.7014890313148499,
        0.0005940470728091896,
        1.0
      ],
      "min": [
        -0.7016677856445313,
        -0.00038335713907144964,
        -1.0
      ],
      "type": "VEC3"
    },
    {
      "bufferView": 3,
      "byteOffset": 385488,
      "componentType": 5126,
      "count": 602,
      "max": [
        1.0,
        1.0,
        0.08796270936727524,
        1.0
      ],
      "min": [
        -1.0,
        -0.9996161460876465,
        -0.7016677856445313,
        -1.0
      ],
      "type": "VEC4"
    },
    {
      "bufferView": 1,
      "byteOffset": 770976,
      "componentType": 5126,
      "count": 602,
      "max": [
        0.5096260905265808,
        0.9779494404792786
      ],
      "min": [
        0.014786256477236748,
        0.5760959386825562
      ],
      "type": "VEC2"
    },
    {
      "bufferView": 1,
      "byteOffset": 775792,
      "componentType": 5126,
      "count": 602,
      "max": [
        0.5096260905265808,
        0.9779494404792786
      ],
      "min": [
        0.014786256477236748,
        0.5760959386825562
      ],
      "type": "VEC2"
    },
    {
      "bufferView": 1,
      "byteOffset": 780608,
      "componentType": 5126,
      "count": 602,
      "max": [
        0.5096260905265808,
        0.9779494404792786
      ],
      "min": [
        0.014786256477236748,
        0.5760959386825562
      ],
      "type": "VEC2"
    },
    {
      "bufferView": 1,
      "byteOffset": 785424,
      "componentType": 5126,
      "count": 602,
      "max": [
        0.5096260905265808,
        0.9779494404792786
      ],
      "min": [
        0.014786256477236748,
        0.5760959386825562
      ],
      "type": "VEC2"
    },
    {
      "bufferView": 0,
      "byteOffset": 208260,
      "componentType": 5125,
      "count": 1440,
      "type": "SCALAR"
    }
  ],
  "asset": {
    "extras": {
      "author": "Vertiv (https://sketchfab.com/vertiv)",
      "license": "CC-BY-4.0 (http://creativecommons.org/licenses/by/4.0/)",
      "source": "https://sketchfab.com/3d-models/vr3100-42u-11b3b6c30a474ddda260bdc4bb96c59e",
      "title": "VR3100 42U"
    },
    "generator": "Sketchfab-15.12.0",
    "version": "2.0"
  },
  "bufferViews": [
    {
      "buffer": 0,
      "byteLength": 214020,
      "name": "floatBufferViews",
      "target": 34963
    },
    {
      "buffer": 0,
      "byteLength": 790240,
      "byteOffset": 214020,
      "byteStride": 8,
      "name": "floatBufferViews",
      "target": 34962
    },
    {
      "buffer": 0,
      "byteLength": 592680,
      "byteOffset": 1004260,
      "byteStride": 12,
      "name": "floatBufferViews",
      "target": 34962
    },
    {
      "buffer": 0,
      "byteLength": 395120,
      "byteOffset": 1596940,
      "byteStride": 16,
      "name": "floatBufferViews",
      "target": 34962
    }
  ],
  "buffers": [
    {
      "byteLength": 1992060,
      "uri": "rack.bin"
    }
  ],
  "extensionsUsed": [
    "KHR_materials_specular"
  ],
  "images": [
    {
      "uri": "textures/BaseMaterials_baseColor.png"
    },
    {
      "uri": "textures/BaseMaterials_metallicRoughness.png"
    },
    {
      "uri": "textures/BaseMaterials_normal.jpeg"
    },
    {
      "uri": "textures/BaseMaterials_specularf0.png"
    },
    {
      "uri": "textures/VR3100_Decals_baseColor.png"
    },
    {
      "uri": "textures/VR3100_Decals_metallicRoughness.png"
    },
    {
      "uri": "textures/VR3100_Decals_normal.jpeg"
    },
    {
      "uri": "textures/VR3100_Grid_baseColor.png"
    },
    {
      "uri": "textures/VR3100_Grid_metallicRoughness.png"
    },
    {
      "uri": "textures/VR3100_Grid_normal.jpeg"
    }
  ],
  "materials": [
    {
      "alphaMode": "BLEND",
      "extensions": {
        "KHR_materials_specular": {
          "specularColorFactor": [
            1.0,
            1.0,
            1.0
          ],
          "specularFactor": 1.0,
          "specularTexture": {
            "index": 3
          }
        }
      },
      "name": "BaseMaterials",
      "normalTexture": {
        "index": 2
      },
      "pbrMetallicRoughness": {
        "baseColorTexture": {
          "index": 0
        },
        "metallicRoughnessTexture": {
          "index": 1
        }
      }
    },
    {
      "alphaMode": "BLEND",
      "name": "VR3100_Decals",
      "normalTexture": {
        "index": 6
      },
      "pbrMetallicRoughness": {
        "baseColorTexture": {
          "index": 4
        },
        "metallicRoughnessTexture": {
          "index": 5
        }
      }
    },
    {
      "alphaMode": "BLEND",
      "name": "VR3100_Grid",
      "normalTexture": {
        "index": 9
      },
      "pbrMetallicRoughness": {
        "baseColorTexture": {
          "index": 7
        },
        "metallicRoughnessTexture": {
          "index": 8
        }
      }
    }
  ],
  "meshes": [
    {
      "name": "Object_0",
      "primitives": [
        {
          "attributes": {
            "NORMAL": 1,
            "POSITION": 0,
            "TANGENT": 2,
            "TEXCOORD_0": 3,
            "TEXCOORD_1": 4,
            "TEXCOORD_2": 5,
            "TEXCOORD_3": 6
          },
          "indices": 7,
          "material": 0,
          "mode": 4
        }
      ]
    },
    {
      "name": "Object_1",
      "primitives": [
        {
          "attributes": {
            "NORMAL": 9,
            "POSITION": 8,
            "TANGENT": 10,
            "TEXCOORD_0": 11,
            "TEXCOORD_1": 12,
            "TEXCOORD_2": 13,
            "TEXCOORD_3": 14
          },
          "indices": 15,
          "material": 1,
          "mode": 4
        }
      ]
    },
    {
      "name": "Object_2",
      "primitives": [
        {
          "attributes": {
            "NORMAL": 17,
            "POSITION": 16,
            "TANGENT": 18,
            "TEXCOORD_0": 19,
            "TEXCOORD_1": 20,
            "TEXCOORD_2": 21,
            "TEXCOORD_3": 22
          },
          "indices": 23,
          "material": 0,
          "mode": 4
        }
      ]
    },
    {
      "name": "Object_3",
      "primitives": [
        {
          "attributes": {
            "NORMAL": 25,
            "POSITION": 24,
            "TANGENT": 26,
            "TEXCOORD_0": 27,
            "TEXCOORD_1": 28,
            "TEXCOORD_2": 29,
            "TEXCOORD_3": 30
          },
          "indices": 31,
          "material": 2,
          "mode": 4
        }
      ]
    }
  ],
  "nodes": [
    {
      "children": [
        1
      ],
      "matrix": [
        0.9393030405044556,
        0.0,
        0.0,
        0.0,
        0.0,
        2.0856717253369252e-16,
        -0.9393030405044556,
        0.0,
        0.0,
        0.9393030405044556,
        2.0856717253369252e-16,
        0.0,
        0.0,
        0.0,
        0.0,
        1.0
      ],
      "name": "Sketchfab_model"
    },
    {
      "children": [
        2
      ],
      "name": "root"
    },
    {
      "children": [
        3,
        5,
        8
      ],
      "matrix": [
        1.0,
        0.0,
        0.0,
        0.0,
        0.0,
        2.220446049250313e-16,
        1.0,
        0.0,
        0.0,
        -1.0,
        2.220446049250313e-16,
        0.0,
        0.0,
        0.0,
        0.0,
        1.0
      ],
      "name": "GLTF_SceneRootNode"
    },
    {
      "children": [
        4
      ],
      "name": "VR3100_0"
    },
    {
      "mesh": 0,
      "name": "Object_4"
    },
    {
      "children": [
        6,
        7
      ],
      "name": "VR3100_Decals_1"
    },
    {
      "mesh": 1,
      "name": "Object_6"
    },
    {
      "mesh": 2,
      "name": "Object_7"
    },
    {
      "children": [
        9
      ],
      "name": "VR3100_Grid_2"
    },
    {
      "mesh": 3,
      "name": "Object_9"
    }
  ],
  "samplers": [
    {
      "magFilter": 9729,
      "minFilter": 9987,
      "wrapS": 10497,
      "wrapT": 10497
    }
  ],
  "scene": 0,
  "scenes": [
    {
      "name": "Sketchfab_Scene",
      "nodes": [
        0
      ]
    }
  ],
  "textures": [
    {
      "sampler": 0,
      "source": 0
    },
    {
      "sampler": 0,
      "source": 1
    },
    {
      "sampler": 0,
      "source": 2
    },
    {
      "sampler": 0,
      "source": 3
    },
    {
      "sampler": 0,
      "source": 4
    },
    {
      "sampler": 0,
      "source": 5
    },
    {
      "sampler": 0,
      "source": 6
    },
    {
      "sampler": 0,
      "source": 7
    },
    {
      "sampler": 0,
      "source": 8
    },
    {
      "sampler": 0,
      "source": 9
    }
  ]
}
